<?xml version="1.0" encoding="UTF-8"?>
<!DOCTYPE svg PUBLIC "-//W3C//DTD SVG 1.1//EN" "http://www.w3.org/Graphics/SVG/1.1/DTD/svg11.dtd">
<svg xmlns="http://www.w3.org/2000/svg" version="1.1" width="212px" height="119px" style="shape-rendering:geometricPrecision; text-rendering:geometricPrecision; image-rendering:optimizeQuality; fill-rule:evenodd; clip-rule:evenodd" xmlns:xlink="http://www.w3.org/1999/xlink">
<g><path style="opacity:1" fill="#fcfdfd" d="M -0.5,-0.5 C 70.1667,-0.5 140.833,-0.5 211.5,-0.5C 211.5,39.1667 211.5,78.8333 211.5,118.5C 140.833,118.5 70.1667,118.5 -0.5,118.5C -0.5,78.8333 -0.5,39.1667 -0.5,-0.5 Z"/></g>
<g><path style="opacity:1" fill="#171717" d="M 72.5,10.5 C 79.3576,11.1269 80.6909,13.9603 76.5,19C 69.3461,18.7081 68.0127,15.8748 72.5,10.5 Z"/></g>
<g><path style="opacity:1" fill="#173a4d" d="M 38.5,31.5 C 42.1029,33.7631 45.4362,36.4297 48.5,39.5C 51.1444,42.4802 53.811,45.4802 56.5,48.5C 55.4787,50.188 54.1454,51.5213 52.5,52.5C 45.5899,47.0957 39.0899,41.0957 33,34.5C 32.5172,33.552 32.3505,32.552 32.5,31.5C 34.5,31.5 36.5,31.5 38.5,31.5 Z"/></g>
<g><path style="opacity:1" fill="#1a475f" d="M 38.5,31.5 C 36.5,31.5 34.5,31.5 32.5,31.5C 32.3505,32.552 32.5172,33.552 33,34.5C 39.0899,41.0957 45.5899,47.0957 52.5,52.5C 50.7116,53.6225 48.7116,53.7891 46.5,53C 43.8333,50.3333 41.1667,47.6667 38.5,45C 35.462,44.115 32.7954,44.615 30.5,46.5C 26.5,45.8333 24.1667,43.5 23.5,39.5C 25.9619,36.5361 28.6286,33.7028 31.5,31C 34.0385,30.2042 36.3718,30.3709 38.5,31.5 Z"/></g>
<g><path style="opacity:1" fill="#0f222d" d="M 64.5,36.5 C 63.7611,36.369 63.0944,36.5357 62.5,37C 63.7101,38.0391 64.7101,39.2058 65.5,40.5C 62.676,40.9893 61.3426,42.656 61.5,45.5C 61.0954,46.5498 60.4288,46.5498 59.5,45.5C 57.8907,42.2224 55.5573,39.5558 52.5,37.5C 53.1272,36.5832 53.4606,35.5832 53.5,34.5C 54.5198,32.648 56.0198,31.3147 58,30.5C 60.6517,31.9855 62.8184,33.9855 64.5,36.5 Z"/></g>
<g><path style="opacity:1" fill="#10161a" d="M 69.5,42.5 C 68.713,40.8958 67.3797,40.2291 65.5,40.5C 64.7101,39.2058 63.7101,38.0391 62.5,37C 63.0944,36.5357 63.7611,36.369 64.5,36.5C 65.8734,36.6567 67.2068,36.49 68.5,36C 70.3848,33.7776 72.5515,31.9443 75,30.5C 85.5292,37.5327 84.6959,42.366 72.5,45C 71.6266,43.955 70.6266,43.1217 69.5,42.5 Z"/></g>
<g><path style="opacity:1" fill="#b7bcbf" d="M 65.5,40.5 C 67.3797,40.2291 68.713,40.8958 69.5,42.5C 67.5,42.5 65.5,42.5 63.5,42.5C 63.5,43.5 63.5,44.5 63.5,45.5C 62.8333,45.5 62.1667,45.5 61.5,45.5C 61.3426,42.656 62.676,40.9893 65.5,40.5 Z"/></g>
<g><path style="opacity:1" fill="#142e3e" d="M 53.5,34.5 C 53.4606,35.5832 53.1272,36.5832 52.5,37.5C 55.5573,39.5558 57.8907,42.2224 59.5,45.5C 60.4288,46.5498 61.0954,46.5498 61.5,45.5C 62.1667,45.5 62.8333,45.5 63.5,45.5C 66.8333,49.5 70.5,53.1667 74.5,56.5C 75.7143,59.204 75.7143,61.8707 74.5,64.5C 73.8333,64.8333 73.1667,65.1667 72.5,65.5C 67.9281,62.4367 63.7615,58.77 60,54.5C 59.51,53.2068 59.3433,51.8734 59.5,50.5C 58.045,46.1949 55.2117,42.8615 51,40.5C 50.5172,39.552 50.3505,38.552 50.5,37.5C 51.1667,36.1667 52.1667,35.1667 53.5,34.5 Z"/></g>
<g><path style="opacity:1" fill="#24678c" d="M 23.5,39.5 C 24.1667,43.5 26.5,45.8333 30.5,46.5C 27.1162,50.2125 23.7829,53.8792 20.5,57.5C 19.71,58.6085 19.21,59.9419 19,61.5C 15.4492,58.8057 12.9492,55.4724 11.5,51.5C 15.1667,47.1667 19.1667,43.1667 23.5,39.5 Z"/></g>
<g><path style="opacity:1" fill="#5899bc" d="M 187.5,47.5 C 184.5,47.5 181.5,47.5 178.5,47.5C 178.813,51.0419 178.479,54.3752 177.5,57.5C 177.5,53.8333 177.5,50.1667 177.5,46.5C 181.042,46.1872 184.375,46.5206 187.5,47.5 Z"/></g>
<g><path style="opacity:1" fill="#13699d" d="M 187.5,47.5 C 187.5,50.8333 187.5,54.1667 187.5,57.5C 189.5,57.5 191.5,57.5 193.5,57.5C 193.5,60.1667 193.5,62.8333 193.5,65.5C 191.5,65.5 189.5,65.5 187.5,65.5C 187.183,69.7016 187.517,73.7016 188.5,77.5C 190.97,78.8779 193.304,78.5446 195.5,76.5C 197.764,75.7814 200.097,75.448 202.5,75.5C 205.899,78.2323 206.399,81.5656 204,85.5C 203.25,86.1258 202.416,86.6258 201.5,87C 195.875,86.8125 190.208,86.8125 184.5,87C 181.691,86.6878 180.024,85.1878 179.5,82.5C 178.972,76.6825 178.305,71.0158 177.5,65.5C 173.486,65.3345 169.486,65.5012 165.5,66C 161.539,70.1299 161.539,74.2965 165.5,78.5C 168.833,79.1667 172.167,79.8333 175.5,80.5C 176.348,82.4086 176.682,84.4086 176.5,86.5C 167.471,89.3752 159.804,87.3752 153.5,80.5C 150.802,83.84 147.469,86.1734 143.5,87.5C 139.007,87.7306 134.674,87.064 130.5,85.5C 128.833,84.1667 127.167,82.8333 125.5,81.5C 125.217,80.7109 124.717,80.0442 124,79.5C 123.503,81.8098 123.337,84.1432 123.5,86.5C 120.167,86.5 116.833,86.5 113.5,86.5C 113.666,80.1579 113.5,73.8246 113,67.5C 110.344,64.0577 107.51,63.7244 104.5,66.5C 103.883,66.6107 103.383,66.944 103,67.5C 102.5,73.8246 102.334,80.1579 102.5,86.5C 99.5,86.5 96.5,86.5 93.5,86.5C 93.5,77.1667 93.5,67.8333 93.5,58.5C 96.1667,58.5 98.8333,58.5 101.5,58.5C 101.5,59.5 101.5,60.5 101.5,61.5C 103.179,61.7148 104.179,61.0481 104.5,59.5C 107.204,56.6967 110.537,55.8634 114.5,57C 118.709,58.187 121.876,60.687 124,64.5C 133.634,53.9015 143.301,53.9015 153,64.5C 155.106,61.8823 157.606,59.8823 160.5,58.5C 163.807,57.9492 167.14,57.6159 170.5,57.5C 172.833,57.5 175.167,57.5 177.5,57.5C 178.479,54.3752 178.813,51.0419 178.5,47.5C 181.5,47.5 184.5,47.5 187.5,47.5 Z"/></g>
<g><path style="opacity:1" fill="#1c5675" d="M 46.5,57.5 C 45.7611,57.369 45.0944,57.5357 44.5,58C 46.7293,60.4003 49.0626,62.567 51.5,64.5C 49.4727,64.3379 47.4727,64.5045 45.5,65C 44.2949,66.3756 42.9616,67.5423 41.5,68.5C 36.4266,64.9344 31.7599,60.7677 27.5,56C 28.8228,55.1841 29.4894,54.0174 29.5,52.5C 31.438,48.8308 34.438,47.6641 38.5,49C 41.3714,51.7028 44.0381,54.5361 46.5,57.5 Z"/></g>
<g><path style="opacity:1" fill="#2679a5" d="M 11.5,51.5 C 12.9492,55.4724 15.4492,58.8057 19,61.5C 19.21,59.9419 19.71,58.6085 20.5,57.5C 20.2475,60.3198 20.7475,62.9865 22,65.5C 25.1667,68.6667 28.3333,71.8333 31.5,75C 34.5547,75.6342 37.5547,75.4675 40.5,74.5C 40.0472,75.4584 39.3805,76.2917 38.5,77C 40.5463,79.9027 43.213,81.736 46.5,82.5C 44.2484,86.4241 40.915,88.7574 36.5,89.5C 27.2022,79.7016 17.7022,70.035 8,60.5C 7.50649,58.8659 7.33982,57.1992 7.5,55.5C 8.5,53.8333 9.83333,52.5 11.5,51.5 Z"/></g>
<g><path style="opacity:1" fill="#24688e" d="M 29.5,52.5 C 29.4894,54.0174 28.8228,55.1841 27.5,56C 31.7599,60.7677 36.4266,64.9344 41.5,68.5C 39.562,72.1692 36.562,73.3359 32.5,72C 29.6667,69.1667 26.8333,66.3333 24,63.5C 22.8879,58.4256 24.7212,54.7589 29.5,52.5 Z"/></g>
<g><path style="opacity:1" fill="#68a1c1" d="M 170.5,57.5 C 167.14,57.6159 163.807,57.9492 160.5,58.5C 162.117,57.0277 164.117,56.361 166.5,56.5C 168.045,56.5108 169.378,56.8442 170.5,57.5 Z"/></g>
<g><path style="opacity:1" fill="#113b52" d="M 59.5,50.5 C 59.3433,51.8734 59.51,53.2068 60,54.5C 63.7615,58.77 67.9281,62.4367 72.5,65.5C 71.8333,66.5 71.1667,67.5 70.5,68.5C 69.1667,69.5 67.8333,70.5 66.5,71.5C 62.2022,67.7036 58.0356,63.7036 54,59.5C 54.1433,58.1351 54.6433,56.8018 55.5,55.5C 56.8637,53.8089 58.197,52.1423 59.5,50.5 Z"/></g>
<g><path style="opacity:1" fill="#3288b7" d="M 7.5,55.5 C 7.33982,57.1992 7.50649,58.8659 8,60.5C 17.7022,70.035 27.2022,79.7016 36.5,89.5C 34.4727,89.6621 32.4727,89.4955 30.5,89C 22.6667,81.1667 14.8333,73.3333 7,65.5C 4.85495,61.8632 5.02162,58.5298 7.5,55.5 Z"/></g>
<g><path style="opacity:1" fill="#194761" d="M 55.5,55.5 C 54.6433,56.8018 54.1433,58.1351 54,59.5C 58.0356,63.7036 62.2022,67.7036 66.5,71.5C 64.7354,72.4614 62.7354,72.7947 60.5,72.5C 60.1667,71.5 59.5,70.8333 58.5,70.5C 56.7607,67.7573 54.4274,65.7573 51.5,64.5C 49.0626,62.567 46.7293,60.4003 44.5,58C 45.0944,57.5357 45.7611,57.369 46.5,57.5C 49.6916,57.5955 52.6916,56.9288 55.5,55.5 Z"/></g>
<g><path style="opacity:1" fill="#196b9e" d="M 74.5,56.5 C 81.1731,55.224 86.5065,57.224 90.5,62.5C 91.4368,70.445 91.7701,78.445 91.5,86.5C 88.1667,86.5 84.8333,86.5 81.5,86.5C 81.6662,80.1579 81.4995,73.8246 81,67.5C 79.4912,65.0807 77.3245,64.0807 74.5,64.5C 75.7143,61.8707 75.7143,59.204 74.5,56.5 Z"/></g>
<g><path style="opacity:1" fill="#3f89b2" d="M 92.5,57.5 C 96.7416,57.1505 100.742,57.8172 104.5,59.5C 104.179,61.0481 103.179,61.7148 101.5,61.5C 101.5,60.5 101.5,59.5 101.5,58.5C 98.8333,58.5 96.1667,58.5 93.5,58.5C 93.5,67.8333 93.5,77.1667 93.5,86.5C 92.5062,77.0144 92.1729,67.3478 92.5,57.5 Z"/></g>
<g><path style="opacity:1" fill="#eef4f8" d="M 143.5,65.5 C 142.486,66.7647 140.986,67.4313 139,67.5C 137.014,67.4313 135.514,66.7647 134.5,65.5C 137.383,62.9103 140.383,62.9103 143.5,65.5 Z"/></g>
<g><path style="opacity:1" fill="#5697bb" d="M 177.5,65.5 C 178.305,71.0158 178.972,76.6825 179.5,82.5C 178.883,82.3893 178.383,82.056 178,81.5C 177.501,76.1771 177.334,70.8437 177.5,65.5 Z"/></g>
<g><path style="opacity:1" fill="#adccde" d="M 193.5,65.5 C 192.081,66.4511 190.415,66.7845 188.5,66.5C 188.5,70.1667 188.5,73.8333 188.5,77.5C 187.517,73.7016 187.183,69.7016 187.5,65.5C 189.5,65.5 191.5,65.5 193.5,65.5 Z"/></g>
<g><path style="opacity:1" fill="#82b2cd" d="M 134.5,65.5 C 135.514,66.7647 137.014,67.4313 139,67.5C 140.986,67.4313 142.486,66.7647 143.5,65.5C 144.404,66.209 144.737,67.209 144.5,68.5C 140.833,68.5 137.167,68.5 133.5,68.5C 133.263,67.209 133.596,66.209 134.5,65.5 Z"/></g>
<g><path style="opacity:1" fill="#9fc4d9" d="M 92.5,57.5 C 92.1729,67.3478 92.5062,77.0144 93.5,86.5C 96.5,86.5 99.5,86.5 102.5,86.5C 95.5,87.8333 88.5,87.8333 81.5,86.5C 84.8333,86.5 88.1667,86.5 91.5,86.5C 91.7701,78.445 91.4368,70.445 90.5,62.5C 91.1667,60.8333 91.8333,59.1667 92.5,57.5 Z"/></g>
<g><path style="opacity:1" fill="#dce6eb" d="M 50.5,37.5 C 50.3505,38.552 50.5172,39.552 51,40.5C 55.2117,42.8615 58.045,46.1949 59.5,50.5C 58.197,52.1423 56.8637,53.8089 55.5,55.5C 52.6916,56.9288 49.6916,57.5955 46.5,57.5C 44.0381,54.5361 41.3714,51.7028 38.5,49C 34.438,47.6641 31.438,48.8308 29.5,52.5C 24.7212,54.7589 22.8879,58.4256 24,63.5C 26.8333,66.3333 29.6667,69.1667 32.5,72C 36.562,73.3359 39.562,72.1692 41.5,68.5C 42.9616,67.5423 44.2949,66.3756 45.5,65C 47.4727,64.5045 49.4727,64.3379 51.5,64.5C 54.4274,65.7573 56.7607,67.7573 58.5,70.5C 57.8333,71.5 57.1667,72.5 56.5,73.5C 55.1514,68.3215 51.818,66.4882 46.5,68C 44.2941,70.0367 42.2941,72.2034 40.5,74.5C 37.5547,75.4675 34.5547,75.6342 31.5,75C 28.3333,71.8333 25.1667,68.6667 22,65.5C 20.7475,62.9865 20.2475,60.3198 20.5,57.5C 23.7829,53.8792 27.1162,50.2125 30.5,46.5C 32.7954,44.615 35.462,44.115 38.5,45C 41.1667,47.6667 43.8333,50.3333 46.5,53C 48.7116,53.7891 50.7116,53.6225 52.5,52.5C 54.1454,51.5213 55.4787,50.188 56.5,48.5C 53.811,45.4802 51.1444,42.4802 48.5,39.5C 49.1667,38.8333 49.8333,38.1667 50.5,37.5 Z"/></g>
<g><path style="opacity:1" fill="#b7d3e2" d="M 104.5,66.5 C 103.906,73.2991 103.239,79.9657 102.5,86.5C 102.334,80.1579 102.5,73.8246 103,67.5C 103.383,66.944 103.883,66.6107 104.5,66.5 Z"/></g>
<g><path style="opacity:1" fill="#186a9d" d="M 70.5,68.5 C 70.5,74.5 70.5,80.5 70.5,86.5C 67.1667,86.5 63.8333,86.5 60.5,86.5C 60.5,81.8333 60.5,77.1667 60.5,72.5C 62.7354,72.7947 64.7354,72.4614 66.5,71.5C 67.8333,70.5 69.1667,69.5 70.5,68.5 Z"/></g>
<g><path style="opacity:1" fill="#b7d3e2" d="M 151.5,74.5 C 145.833,74.5 140.167,74.5 134.5,74.5C 134.5,75.5 134.5,76.5 134.5,77.5C 133.566,76.4324 133.232,75.099 133.5,73.5C 139.69,73.1771 145.69,73.5104 151.5,74.5 Z"/></g>
<g><path style="opacity:1" fill="#266589" d="M 56.5,73.5 C 53.1667,76.5 49.8333,79.5 46.5,82.5C 43.213,81.736 40.5463,79.9027 38.5,77C 39.3805,76.2917 40.0472,75.4584 40.5,74.5C 42.2941,72.2034 44.2941,70.0367 46.5,68C 51.818,66.4882 55.1514,68.3215 56.5,73.5 Z"/></g>
<g><path style="opacity:1" fill="#f1f6f9" d="M 151.5,74.5 C 152.218,76.1368 152.384,77.8034 152,79.5C 150.323,78.4841 148.657,77.4841 147,76.5C 142.957,79.9541 138.79,80.2874 134.5,77.5C 134.5,76.5 134.5,75.5 134.5,74.5C 140.167,74.5 145.833,74.5 151.5,74.5 Z"/></g>
<g><path style="opacity:1" fill="#5d9bbd" d="M 202.5,75.5 C 200.097,75.448 197.764,75.7814 195.5,76.5C 196.312,75.0069 197.645,74.3402 199.5,74.5C 200.726,74.5195 201.726,74.8529 202.5,75.5 Z"/></g>
<g><path style="opacity:1" fill="#a9cadc" d="M 125.5,81.5 C 124.833,83.1667 124.167,84.8333 123.5,86.5C 123.337,84.1432 123.503,81.8098 124,79.5C 124.717,80.0442 125.217,80.7109 125.5,81.5 Z"/></g>
<g><path style="opacity:1" fill="#bbd5e3" d="M 130.5,85.5 C 134.674,87.064 139.007,87.7306 143.5,87.5C 140.696,88.6378 137.696,88.8045 134.5,88C 132.68,87.7996 131.347,86.9663 130.5,85.5 Z"/></g>
<g><path style="opacity:1" fill="#636363" d="M 128.5,90.5 C 129.859,91.0065 130.859,92.0065 131.5,93.5C 132.086,93.2907 132.586,92.9574 133,92.5C 132.333,94.5 132.333,96.5 133,98.5C 131.887,97.2889 130.72,97.2889 129.5,98.5C 128.52,95.9135 128.187,93.2469 128.5,90.5 Z"/></g>
<g><path style="opacity:1" fill="#8e8e8e" d="M 105.5,90.5 C 106.748,91.3339 107.415,92.6672 107.5,94.5C 107.167,95.8333 106.833,97.1667 106.5,98.5C 105.52,95.9135 105.187,93.2469 105.5,90.5 Z"/></g>
<g><path style="opacity:1" fill="#676767" d="M 117.5,96.5 C 120.258,97.9665 119.925,98.6332 116.5,98.5C 115.387,97.0536 115.22,95.3869 116,93.5C 117.494,92.2528 118.994,92.2528 120.5,93.5C 119.007,94.1411 118.007,95.1411 117.5,96.5 Z"/></g>
<g><path style="opacity:1" fill="#3b3b3b" d="M 157.5,92.5 C 158.376,92.3691 159.043,92.7025 159.5,93.5C 158.699,95.3527 158.365,97.0194 158.5,98.5C 157.534,96.604 157.201,94.604 157.5,92.5 Z"/></g>
<g><path style="opacity:1" fill="#565656" d="M 93.5,92.5 C 94.675,92.281 95.675,92.6143 96.5,93.5C 95.2532,95.0421 95.2532,96.5421 96.5,98C 95.552,98.4828 94.552,98.6495 93.5,98.5C 93.5,96.5 93.5,94.5 93.5,92.5 Z"/></g>
<g><path style="opacity:1" fill="#515151" d="M 146.5,92.5 C 147.725,94.4491 147.058,95.7825 144.5,96.5C 145.602,97.1757 146.602,97.8423 147.5,98.5C 142.841,98.9854 141.508,97.152 143.5,93C 144.448,92.5172 145.448,92.3505 146.5,92.5 Z"/></g>
<g><path style="opacity:1" fill="#a0a0a0" d="M 146.5,92.5 C 147.693,92.9704 148.36,93.9704 148.5,95.5C 148.48,96.7261 148.147,97.7261 147.5,98.5C 146.602,97.8423 145.602,97.1757 144.5,96.5C 147.058,95.7825 147.725,94.4491 146.5,92.5 Z"/></g>
<g><path style="opacity:1" fill="#bcbcbc" d="M 117.5,96.5 C 118.5,96.5 119.5,96.5 120.5,96.5C 120.5,97.5 120.5,98.5 120.5,99.5C 118.901,99.7678 117.568,99.4345 116.5,98.5C 119.925,98.6332 120.258,97.9665 117.5,96.5 Z"/></g>
<g><path style="opacity:1" fill="#767676" d="M 169.5,92.5 C 170.978,92.238 172.311,92.5713 173.5,93.5C 172.948,95.0026 172.948,96.6693 173.5,98.5C 171.712,98.7852 170.045,98.4519 168.5,97.5C 168.579,95.8717 168.912,94.2051 169.5,92.5 Z"/></g>
</svg>
